<?xml version="1.0" encoding="UTF-8"?>
<svg xmlns="http://www.w3.org/2000/svg" version="1.1" viewBox="0 0 612 612">
  <defs>
    <style>
      .cls-1 {
      fill: none;
      stroke:rgba(28,28,30,255);
      stroke-linecap: square;
      stroke-miterlimit: 10;
      stroke-width: 15px;
      }
    </style>
  </defs>
  <!-- Generator: Adobe Illustrator 28.6.0, SVG Export Plug-In . SVG Version: 1.2.0 Build 709)  -->
  <g>
    <g id="Layer_1">
      <path class="cls-1" d="M306.77,367.21h-3.83" />
      <path class="cls-1" d="M339.27,290.38" />
      <g>
        <polyline class="cls-1"
          points="50.92 91.49 52.96 106.19 56.51 120 60.58 134.25 65.66 147.62 72.27 160.98 79.38 174.34 87.51 186.81 96.66 198.84 106.82 210.42 117.49 221.11 129.18 231.35 141.37 241.15 154.58 250.06 167.8 258.08 182.02 265.65 196.76 272.33 212 278.12 227.25 282.58 243.51 286.59 259.26 289.71 275.52 291.93 292.29 293.27" />
        <polyline class="cls-1" points="292.29 294.16 292.29 573.88 321.25 573.88 321.25 294.16" />
        <polyline class="cls-1"
          points="320.74 293.27 337.51 291.93 353.77 289.71 369.53 286.59 385.79 282.58 401.03 278.12 416.27 272.33 431.01 265.65 445.24 258.08 458.45 250.06 471.66 241.15 483.86 231.35 495.54 221.11 506.22 210.42 516.38 198.84 525.52 186.81 533.65 174.34 540.77 160.98 547.37 147.62 552.46 134.25 556.52 120 560.08 106.19 562.11 91.49" />
        <line class="cls-1" x1="562.62" y1="91.94" x2="533.65" y2="91.94" />
        <polyline class="cls-1"
          points="79.89 91.94 82.43 106.19 85.98 120.45 91.07 134.25 97.16 148.06 104.28 160.98 112.41 173.9 121.55 185.92 131.72 197.5 142.9 208.19 155.09 217.99 167.8 227.35 181.01 235.81 195.23 243.38 209.97 250.06 225.21 255.85 240.97 260.31 257.23 263.87 273.49 266.54 289.75 268.32 306.52 268.77 323.29 268.32 339.55 266.54 355.81 263.87 372.07 260.31 387.82 255.85 403.06 250.06 417.8 243.38 432.03 235.81 445.24 227.35 457.94 217.99 470.14 208.19 481.32 197.5 491.48 185.92 500.63 173.9 508.76 160.98 515.87 148.06 521.97 134.25 527.05 120.45 530.61 106.19 533.15 91.94" />
        <line class="cls-1" x1="79.38" y1="91.94" x2="50.92" y2="91.94" />
      </g>
      <rect class="cls-1" x="6.38" y="7.32" width="598.94" height="598" />
    </g>
  </g>
</svg>