<?xml version="1.0" encoding="UTF-8"?>
<svg xmlns="http://www.w3.org/2000/svg" version="1.1" viewBox="0 0 612 612">
  <defs>
    <style>
      .cls-1 {
        fill: none;
        stroke: rgba(28 , 28 , 30);
        stroke-linecap: square;
        stroke-miterlimit: 10;
        stroke-width: 10px;
      }
    </style>
  </defs>
  <g>
    <g id="Layer_1">
      <g>
        <polygon class="cls-1" points="339.68 445.1 338.39 429.63 333.24 415.19 326.79 401.78 316.47 388.37 304.87 377.03 290.69 367.75 273.92 359.5 257.16 354.34 239.11 350.22 219.77 349.18 200.43 350.22 182.38 354.34 165.61 359.5 148.85 367.75 134.67 377.03 123.06 388.37 112.75 401.78 106.3 415.19 101.14 429.63 99.85 445.1 101.14 460.57 106.3 475.01 112.75 488.41 123.06 501.82 134.67 513.16 148.85 522.45 165.61 530.7 182.38 535.85 200.43 539.98 219.77 541.01 239.11 539.98 257.16 535.85 273.92 530.7 290.69 522.45 304.87 513.16 316.47 501.82 326.79 488.41 333.24 475.01 338.39 460.57 339.68 445.1 339.68 445.1"/>
        <line class="cls-1" x1="219.77" y1="445.1" x2="392.55" y2="60.42"/>
        <line class="cls-1" x1="392.55" y1="60.42" x2="531.81" y2="100.64"/>
      </g>
    </g>
  </g>
</svg>