<?xml version="1.0" encoding="UTF-8"?>
<svg xmlns="http://www.w3.org/2000/svg" version="1.1" viewBox="0 0 612 612">
  <defs>
    <style>
      .cls-1 {
      stroke: rgba(28,28,30,255);
      }

      .cls-1, .cls-2 {
      fill: none;
      stroke-linecap: square;
      stroke-miterlimit: 10;
      stroke-width: 15px;
      }

      .cls-2 {
      stroke:rgba(28,28,30,255);
      }
    </style>
  </defs>
  <g>
    <g id="Layer_1">
      <g>
        <polygon class="cls-2"
          points="610.17 306 608.34 271.39 602.84 236.79 591.84 202.18 577.19 169.39 560.69 140.25 538.71 111.11 514.89 85.61 487.4 63.75 458.08 43.71 426.93 29.14 393.95 16.39 359.14 9.11 324.32 3.64 287.68 3.64 252.86 9.11 218.05 16.39 185.07 29.14 153.92 43.71 124.6 63.75 97.11 85.61 73.29 111.11 51.31 140.25 34.81 169.39 20.16 202.18 9.16 236.79 3.66 271.39 1.83 306 3.66 340.61 9.16 375.21 20.16 409.82 34.81 442.61 51.31 471.75 73.29 500.89 97.11 526.39 124.6 548.25 153.92 568.29 185.07 582.86 218.05 595.61 252.86 602.89 287.68 608.36 324.32 608.36 359.14 602.89 393.95 595.61 426.93 582.86 458.08 568.29 487.4 548.25 514.89 526.39 538.71 500.89 560.69 471.75 577.19 442.61 591.84 409.82 602.84 375.21 608.34 340.61 610.17 306 610.17 306" />
        <polyline class="cls-2" points="190.56 260.46 399.45 96.54 404.95 102 216.22 253.18" />
        <polyline class="cls-2"
          points="216.22 255 214.38 258.64 212.55 262.29 214.38 265.93 216.22 269.57" />
        <line class="cls-2" x1="216.22" y1="271.39" x2="412.28" y2="358.82" />
        <polyline class="cls-2"
          points="412.28 367.93 414.11 366.11 414.11 364.29 414.11 362.46 412.28 358.82" />
        <polyline class="cls-2" points="412.28 369.75 194.23 497.25 185.07 489.96 382.96 375.21" />
        <polyline class="cls-2"
          points="381.13 373.39 382.96 369.75 384.79 366.11 382.96 362.46 381.13 358.82" />
        <line class="cls-2" x1="382.96" y1="357" x2="190.56" y2="271.39" />
        <polyline class="cls-2"
          points="190.56 262.29 188.73 264.11 188.73 265.93 188.73 267.75 190.56 269.57" />
        <polygon class="cls-1" points="0 306 304.17 3.64 610.17 304.18 306 608.36 0 306 0 306" />
        <polygon class="cls-2"
          points="612 306 610.17 269.57 602.84 234.96 593.68 202.18 579.02 169.39 562.53 138.43 540.54 109.29 516.72 83.79 489.23 60.11 459.92 41.89 426.93 25.5 393.95 12.75 359.14 5.46 324.32 0 287.68 0 252.86 5.46 218.05 12.75 185.07 25.5 153.92 41.89 122.77 60.11 95.28 83.79 71.46 109.29 49.47 138.43 32.98 169.39 18.32 202.18 9.16 234.96 1.83 269.57 0 306 1.83 342.43 9.16 377.04 18.32 409.82 32.98 442.61 49.47 473.57 71.46 502.71 95.28 528.21 122.77 551.89 152.08 570.11 185.07 586.5 218.05 599.25 252.86 606.54 287.68 612 324.32 612 359.14 606.54 393.95 599.25 426.93 586.5 459.92 570.11 489.23 551.89 516.72 528.21 540.54 502.71 562.53 473.57 579.02 442.61 593.68 409.82 602.84 377.04 610.17 342.43 612 306 612 306" />
      </g>
    </g>
  </g>
</svg>